<?xml version="1.0" standalone="no"?>
<svg viewBox="0 0 200 200" xmlns="http://www.w3.org/2000/svg">
  <path fill="#0F62FE" d="M41.5,-60.8C55.1,-55.9,68.1,-46.5,76.2,-33.4C84.3,-20.4,87.5,-3.7,82.7,10.1C78,23.9,65.4,34.8,53.7,44.1C41.9,53.5,31.1,61.2,18.4,66.8C5.7,72.3,-8.8,75.8,-21.6,72.5C-34.3,69.1,-45.4,59,-57.3,48.1C-69.2,37.2,-82,25.4,-87.3,10.5C-92.7,-4.4,-90.8,-22.5,-83.1,-37.4C-75.4,-52.2,-62,-63.9,-47.2,-68.2C-32.4,-72.5,-16.2,-69.3,-1.1,-67.6C14,-65.9,28,-65.6,41.5,-60.8Z" transform="translate(100 100)" />
</svg>
